<!DOCTYPE svg PUBLIC "-//W3C//DTD SVG 1.1//EN" "http://www.w3.org/Graphics/SVG/1.1/DTD/svg11.dtd">
<!-- Uploaded to: SVG Repo, www.svgrepo.com, Transformed by: SVG Repo Mixer Tools -->
<svg fill="#ffffff" version="1.1" id="Layer_1" xmlns="http://www.w3.org/2000/svg" xmlns:xlink="http://www.w3.org/1999/xlink" viewBox="0 0 512 512" xml:space="preserve" width="800px" height="800px" stroke="#ffffff">
<g id="SVGRepo_bgCarrier" stroke-width="0"/>
<g id="SVGRepo_tracerCarrier" stroke-linecap="round" stroke-linejoin="round"/>
<g id="SVGRepo_iconCarrier"> <g> <g> <rect x="46.873" y="194.704" width="72.113" height="317.296"/> </g> </g> <g> <g> <path d="M306.479,310.085v-72.113l-144.225,65.558V512h302.873V237.972L306.479,310.085z M248.789,447.099h-43.268v-43.268h43.268 V447.099z M335.324,447.099h-43.268v-43.268h43.268V447.099z M421.859,447.099h-43.268v-43.268h43.268V447.099z"/> </g> </g> <g> <g> <path d="M457.915,43.268c-17.238,0-24.862-6.535-36.401-16.426C407.562,14.883,390.197,0,356.955,0s-50.607,14.883-64.561,26.842 c-11.539,9.891-19.163,16.426-36.401,16.426c-17.235,0-24.86-6.535-36.398-16.426C205.644,14.884,188.28,0.001,155.042,0 C103.35,0,61.296,42.055,61.296,93.747v57.69h43.268v-57.69c0-27.834,22.645-50.479,50.477-50.479 c17.233,0.001,24.857,6.536,36.395,16.426c13.952,11.959,31.316,26.842,64.558,26.842s50.606-14.883,64.558-26.842 c11.541-9.891,19.165-16.426,36.403-16.426c17.238,0,24.862,6.535,36.401,16.426c13.952,11.959,31.317,26.842,64.56,26.842h7.211 V43.268H457.915z"/> </g> </g> </g>
</svg>